<svg width="58" height="58" viewBox="0 0 58 58" fill="none" xmlns="http://www.w3.org/2000/svg">
<g filter="url(#filter0_d_812_2)">
<mask id="path-1-outside-1_812_2" maskUnits="userSpaceOnUse" x="-0.416" y="-0.119995" width="56" height="56" fill="black">
<rect fill="white" x="-0.416" y="-0.119995" width="56" height="56"/>
<path d="M53.168 2.384V52.88H46.64V42.896C44.592 46.288 41.872 48.88 38.48 50.672C35.152 52.464 31.376 53.36 27.152 53.36C22.416 53.36 18.128 52.272 14.288 50.096C10.448 47.92 7.44 44.88 5.264 40.976C3.088 37.072 2 32.624 2 27.632C2 22.64 3.088 18.192 5.264 14.288C7.44 10.384 10.448 7.376 14.288 5.264C18.128 3.088 22.416 2 27.152 2C31.248 2 34.928 2.864 38.192 4.592C41.52 6.256 44.24 8.72 46.352 11.984V2.384H53.168ZM27.728 47.312C31.248 47.312 34.416 46.512 37.232 44.912C40.112 43.248 42.352 40.912 43.952 37.904C45.616 34.896 46.448 31.472 46.448 27.632C46.448 23.792 45.616 20.368 43.952 17.36C42.352 14.352 40.112 12.048 37.232 10.448C34.416 8.784 31.248 7.952 27.728 7.952C24.144 7.952 20.912 8.784 18.032 10.448C15.216 12.048 12.976 14.352 11.312 17.36C9.712 20.368 8.912 23.792 8.912 27.632C8.912 31.472 9.712 34.896 11.312 37.904C12.976 40.912 15.216 43.248 18.032 44.912C20.912 46.512 24.144 47.312 27.728 47.312Z"/>
</mask>
<path d="M53.168 2.384V52.88H46.64V42.896C44.592 46.288 41.872 48.88 38.48 50.672C35.152 52.464 31.376 53.36 27.152 53.36C22.416 53.36 18.128 52.272 14.288 50.096C10.448 47.92 7.44 44.88 5.264 40.976C3.088 37.072 2 32.624 2 27.632C2 22.64 3.088 18.192 5.264 14.288C7.44 10.384 10.448 7.376 14.288 5.264C18.128 3.088 22.416 2 27.152 2C31.248 2 34.928 2.864 38.192 4.592C41.52 6.256 44.24 8.72 46.352 11.984V2.384H53.168ZM27.728 47.312C31.248 47.312 34.416 46.512 37.232 44.912C40.112 43.248 42.352 40.912 43.952 37.904C45.616 34.896 46.448 31.472 46.448 27.632C46.448 23.792 45.616 20.368 43.952 17.36C42.352 14.352 40.112 12.048 37.232 10.448C34.416 8.784 31.248 7.952 27.728 7.952C24.144 7.952 20.912 8.784 18.032 10.448C15.216 12.048 12.976 14.352 11.312 17.36C9.712 20.368 8.912 23.792 8.912 27.632C8.912 31.472 9.712 34.896 11.312 37.904C12.976 40.912 15.216 43.248 18.032 44.912C20.912 46.512 24.144 47.312 27.728 47.312Z" fill="#F0EDF7"/>
<path d="M53.168 2.384H55.168V0.384003H53.168V2.384ZM53.168 52.88V54.88H55.168V52.88H53.168ZM46.64 52.88H44.64V54.88H46.64V52.88ZM46.64 42.896H48.64V35.7141L44.9279 41.8623L46.64 42.896ZM38.48 50.672L37.5458 48.9036L37.5388 48.9073L37.5318 48.9111L38.48 50.672ZM14.288 50.096L15.274 48.356L14.288 50.096ZM5.264 40.976L7.01096 40.0023V40.0023L5.264 40.976ZM5.264 14.288L7.01096 15.2617V15.2617L5.264 14.288ZM14.288 5.264L15.2518 7.01643L15.263 7.01031L15.274 7.00405L14.288 5.264ZM38.192 4.592L37.2562 6.35958L37.2768 6.37046L37.2976 6.38086L38.192 4.592ZM46.352 11.984L44.6729 13.0705L48.352 18.7565V11.984H46.352ZM46.352 2.384V0.384003H44.352V2.384H46.352ZM37.232 44.912L38.22 46.6509L38.2263 46.6473L38.2326 46.6437L37.232 44.912ZM43.952 37.904L42.2019 36.9359L42.194 36.9503L42.1863 36.9648L43.952 37.904ZM43.952 17.36L42.1863 18.2992L42.194 18.3137L42.2019 18.3281L43.952 17.36ZM37.232 10.448L36.2145 12.1699L36.2375 12.1834L36.2607 12.1963L37.232 10.448ZM18.032 10.448L19.02 12.1869L19.0263 12.1833L19.0326 12.1797L18.032 10.448ZM11.312 17.36L9.56193 16.3919L9.55398 16.4063L9.54626 16.4208L11.312 17.36ZM11.312 37.904L9.54626 38.8432L9.55398 38.8577L9.56193 38.8721L11.312 37.904ZM18.032 44.912L17.0145 46.6339L17.0375 46.6474L17.0607 46.6603L18.032 44.912ZM53.168 2.384H51.168V52.88H53.168H55.168V2.384H53.168ZM53.168 52.88V50.88H46.64V52.88V54.88H53.168V52.88ZM46.64 52.88H48.64V42.896H46.64H44.64V52.88H46.64ZM46.64 42.896L44.9279 41.8623C43.0612 44.954 40.6057 47.2871 37.5458 48.9036L38.48 50.672L39.4142 52.4404C43.1383 50.4729 46.1228 47.622 48.3521 43.9297L46.64 42.896ZM38.48 50.672L37.5318 48.9111C34.5282 50.5284 31.0846 51.36 27.152 51.36V53.36V55.36C31.6674 55.36 35.7758 54.3996 39.4282 52.4329L38.48 50.672ZM27.152 53.36V51.36C22.7356 51.36 18.7914 50.3492 15.274 48.356L14.288 50.096L13.302 51.8361C17.4646 54.1948 22.0964 55.36 27.152 55.36V53.36ZM14.288 50.096L15.274 48.356C11.7574 46.3632 9.01077 43.5902 7.01096 40.0023L5.264 40.976L3.51704 41.9497C5.86923 46.1698 9.13863 49.4768 13.302 51.8361L14.288 50.096ZM5.264 40.976L7.01096 40.0023C5.01962 36.4296 4 32.3238 4 27.632H2H0C0 32.9242 1.15638 37.7144 3.51704 41.9497L5.264 40.976ZM2 27.632H4C4 22.9402 5.01962 18.8344 7.01096 15.2617L5.264 14.288L3.51704 13.3143C1.15638 17.5496 0 22.3398 0 27.632H2ZM5.264 14.288L7.01096 15.2617C9.00801 11.6788 11.7476 8.94375 15.2518 7.01643L14.288 5.264L13.3242 3.51157C9.14838 5.80825 5.87199 9.08923 3.51704 13.3143L5.264 14.288ZM14.288 5.264L15.274 7.00405C18.7914 5.01085 22.7356 4 27.152 4V2V0C22.0964 0 17.4646 1.16516 13.302 3.52396L14.288 5.264ZM27.152 2V4C30.958 4 34.3109 4.80029 37.2562 6.35958L38.192 4.592L39.1278 2.82443C35.5451 0.927711 31.538 0 27.152 0V2ZM38.192 4.592L37.2976 6.38086C40.2913 7.87773 42.7459 10.0925 44.6729 13.0705L46.352 11.984L48.0311 10.8975C45.7341 7.34753 42.7487 4.63428 39.0864 2.80315L38.192 4.592ZM46.352 11.984H48.352V2.384H46.352H44.352V11.984H46.352ZM46.352 2.384V4.384H53.168V2.384V0.384003H46.352V2.384ZM27.728 47.312V49.312C31.5634 49.312 35.077 48.4367 38.22 46.6509L37.232 44.912L36.244 43.1731C33.755 44.5873 30.9326 45.312 27.728 45.312V47.312ZM37.232 44.912L38.2326 46.6437C41.445 44.7877 43.9464 42.1733 45.7177 38.8432L43.952 37.904L42.1863 36.9648C40.7576 39.6507 38.779 41.7084 36.2314 43.1803L37.232 44.912ZM43.952 37.904L45.7021 38.8721C47.5485 35.5343 48.448 31.7703 48.448 27.632H46.448H44.448C44.448 31.1737 43.6835 34.2577 42.2019 36.9359L43.952 37.904ZM46.448 27.632H48.448C48.448 23.4937 47.5485 19.7297 45.7021 16.3919L43.952 17.36L42.2019 18.3281C43.6835 21.0063 44.448 24.0903 44.448 27.632H46.448ZM43.952 17.36L45.7177 16.4208C43.9431 13.0844 41.4326 10.4937 38.2033 8.69969L37.232 10.448L36.2607 12.1963C38.7914 13.6023 40.7609 15.6196 42.1863 18.2992L43.952 17.36ZM37.232 10.448L38.2495 8.72615C35.1019 6.86621 31.5777 5.952 27.728 5.952V7.952V9.952C30.9183 9.952 33.7301 10.7018 36.2145 12.1699L37.232 10.448ZM27.728 7.952V5.952C23.8208 5.952 20.2391 6.86297 17.0314 8.71627L18.032 10.448L19.0326 12.1797C21.5849 10.705 24.4672 9.952 27.728 9.952V7.952ZM18.032 10.448L17.044 8.70909C13.888 10.5023 11.3928 13.0823 9.56193 16.3919L11.312 17.36L13.0621 18.3281C14.5592 15.6217 16.544 13.5937 19.02 12.1869L18.032 10.448ZM11.312 17.36L9.54626 16.4208C7.77379 19.753 6.912 23.5066 6.912 27.632H8.912H10.912C10.912 24.0774 11.6502 20.983 13.0777 18.2992L11.312 17.36ZM8.912 27.632H6.912C6.912 31.7574 7.77379 35.511 9.54626 38.8432L11.312 37.904L13.0777 36.9648C11.6502 34.281 10.912 31.1866 10.912 27.632H8.912ZM11.312 37.904L9.56193 38.8721C11.3894 42.1756 13.8756 44.779 17.0145 46.6339L18.032 44.912L19.0495 43.1902C16.5564 41.717 14.5626 39.6484 13.0621 36.9359L11.312 37.904ZM18.032 44.912L17.0607 46.6603C20.2635 48.4397 23.8348 49.312 27.728 49.312V47.312V45.312C24.4532 45.312 21.5605 44.5844 19.0033 43.1637L18.032 44.912Z" fill="black" mask="url(#path-1-outside-1_812_2)"/>
</g>
<defs>
<filter id="filter0_d_812_2" x="0" y="0" width="57.168" height="57.36" filterUnits="userSpaceOnUse" color-interpolation-filters="sRGB">
<feFlood flood-opacity="0" result="BackgroundImageFix"/>
<feColorMatrix in="SourceAlpha" type="matrix" values="0 0 0 0 0 0 0 0 0 0 0 0 0 0 0 0 0 0 127 0" result="hardAlpha"/>
<feOffset dx="2" dy="2"/>
<feComposite in2="hardAlpha" operator="out"/>
<feColorMatrix type="matrix" values="0 0 0 0 0.0901961 0 0 0 0 0.0470588 0 0 0 0 0.0117647 0 0 0 1 0"/>
<feBlend mode="normal" in2="BackgroundImageFix" result="effect1_dropShadow_812_2"/>
<feBlend mode="normal" in="SourceGraphic" in2="effect1_dropShadow_812_2" result="shape"/>
</filter>
</defs>
</svg>
