<svg width="90" height="49" viewBox="0 0 90 49" fill="none" xmlns="http://www.w3.org/2000/svg">
<path d="M22.368 48.576C18.08 48.576 14.24 47.52 10.848 45.408C7.52 43.296 4.864 40.416 2.88 36.768C0.959999 33.12 -8.34465e-07 28.96 -8.34465e-07 24.288C-8.34465e-07 19.616 0.959999 15.456 2.88 11.808C4.864 8.16003 7.52 5.28003 10.848 3.16803C14.24 1.05603 18.08 2.57492e-05 22.368 2.57492e-05C25.504 2.57492e-05 28.32 0.608026 30.816 1.82403C33.376 3.04002 35.456 4.73602 37.056 6.91203C38.656 9.02402 39.552 11.456 39.744 14.208V34.368C39.552 37.12 38.656 39.584 37.056 41.76C35.52 43.872 33.472 45.536 30.912 46.752C28.352 47.968 25.504 48.576 22.368 48.576ZM25.344 35.328C28.48 35.328 31.008 34.304 32.928 32.256C34.848 30.144 35.808 27.488 35.808 24.288C35.808 22.112 35.36 20.192 34.464 18.528C33.632 16.864 32.416 15.584 30.816 14.688C29.28 13.728 27.488 13.248 25.44 13.248C23.392 13.248 21.568 13.728 19.968 14.688C18.432 15.584 17.184 16.864 16.224 18.528C15.328 20.192 14.88 22.112 14.88 24.288C14.88 26.4 15.328 28.288 16.224 29.952C17.12 31.616 18.368 32.928 19.968 33.888C21.568 34.848 23.36 35.328 25.344 35.328ZM35.232 47.616V35.04L37.44 23.712L35.232 12.384V0.960025H49.632V47.616H35.232ZM80.7098 48.672C78.2138 48.672 76.1338 47.808 74.4698 46.08C72.8058 44.352 71.9738 42.272 71.9738 39.84C71.9738 37.28 72.8058 35.168 74.4698 33.504C76.1338 31.776 78.2138 30.912 80.7098 30.912C83.2698 30.912 85.3498 31.776 86.9498 33.504C88.6138 35.168 89.4458 37.28 89.4458 39.84C89.4458 42.272 88.6138 44.352 86.9498 46.08C85.3498 47.808 83.2698 48.672 80.7098 48.672Z" fill="#F3F4ED"/>
</svg>
